<?xml version="1.0" encoding="UTF-8"?>
<svg id="Layer_1" xmlns="http://www.w3.org/2000/svg" viewBox="0 0 120 120">
  <defs>
    <style>
      .cls-1 {
        fill: #251f56;
      }

      .cls-2 {
        fill: #a19ccc;
      }

      .cls-3 {
        fill: #262157;
      }

      .cls-4 {
        fill: #a094c6;
      }
    </style>
  </defs>
  <path class="cls-4" d="M6.01,111.13c-1.49-2.1-2.99-4.2-3.88-6.65-.87-2.39-1.48-4.84-1.48-7.39,0-24.26-.04-48.52.02-72.78.02-5.72,2.26-10.64,6.2-14.8,3.41-3.59,7.53-5.83,12.39-6.7,1.24-.22,2.5-.39,3.76-.39,24.87-.02,49.74-.1,74.61.03,8.34.04,14.82,3.9,19.25,10.99,2.18,3.49,3.25,7.34,3.25,11.47,0,.28.04.56.06.84-.03.61-.07,1.22-.07,1.82,0,22.94,0,45.88-.02,68.82,0,1.53-.15,3.09-.46,4.59-.93,4.47-3.06,8.29-6.36,11.5-4.38,4.27-9.65,6.45-15.69,6.46-23.97.07-47.95.03-71.92.02-1.77,0-3.56-.06-5.32-.26-4.71-.53-8.79-2.47-12.28-5.67-.69-.63-1.37-1.27-2.06-1.9ZM60.39,114.81c12.53,0,25.07.03,37.6-.02,4.98-.02,9.23-2.01,12.7-5.5,3.74-3.77,5.43-8.45,5.43-13.75,0-23.24,0-46.47,0-69.71,0-.79-.11-1.58-.18-2.37-.43-5.02-2.63-9.13-6.41-12.4-3.3-2.86-7.16-4.47-11.55-4.48-25.07-.03-50.14-.03-75.21,0-4.98,0-9.24,2.01-12.69,5.51-3.69,3.73-5.43,8.35-5.43,13.61,0,23.28,0,46.57.01,69.85,0,1.26.07,2.54.29,3.77,1.61,9.1,9.48,15.49,18.11,15.49,12.44,0,24.88,0,37.32,0Z"/>
  <path class="cls-1" d="M60.39,114.81c-12.44,0-24.88,0-37.32,0-8.63,0-16.5-6.39-18.11-15.49-.22-1.24-.29-2.51-.29-3.77-.02-23.28-.01-46.57-.01-69.85,0-5.26,1.74-9.88,5.43-13.61,3.46-3.49,7.71-5.5,12.69-5.51,25.07-.03,50.14-.03,75.21,0,4.39,0,8.24,1.62,11.55,4.48,3.78,3.27,5.98,7.38,6.41,12.4.07.79.18,1.58.18,2.37,0,23.24,0,46.47,0,69.71,0,5.3-1.69,9.98-5.43,13.75-3.46,3.49-7.71,5.48-12.7,5.5-12.53.05-25.07.02-37.6.02ZM34.07,34.53c-.07.34-.16.61-.17.88-.04,1.66-.46,3.23-1.01,4.78-1.2,3.4-2.36,6.82-3.55,10.22-1.89,5.39-3.79,10.78-5.68,16.17-1.84,5.26-3.67,10.52-5.5,15.79-.16.46-.25.96-.41,1.61.64.05,1.1.11,1.55.11,2.44,0,4.88,0,7.32,0,1.48,0,1.49,0,1.96-1.44.99-3.03,1.96-6.06,2.95-9.09.42-1.29.44-1.3,1.74-1.3,4.93,0,9.85,0,14.78,0,1.43,0,1.43,0,1.89,1.34,1.06,3.1,2.13,6.2,3.18,9.31.24.71.51,1.22,1.45,1.2,3.1-.06,6.19-.02,9.29-.03.23,0,.45-.07.84-.13-.12-.5-.18-.95-.32-1.37-.62-1.82-1.27-3.62-1.91-5.43-3.21-9-6.42-17.99-9.64-26.99-1.73-4.85-3.46-9.7-5.21-14.55-.43-1.18-.46-1.18-1.69-1.18-3.52,0-7.04,0-10.56,0-.41,0-.82.05-1.28.08ZM101.13,66.62c.03-.54.07-.9.06-1.27-.05-1.35-.19-2.71-.18-4.06,0-2.04-.32-4.02-.94-5.94-1.54-4.76-4.58-8.07-9.44-9.63-2.32-.74-4.68-.89-7.07-.84-6.58.14-12.44,3.43-15.07,10.21-1.61,4.14-2.22,8.43-1.82,12.81.32,3.61,1.61,6.94,3.9,9.79,3.5,4.36,8.26,6.18,13.68,6.39,2.33.09,4.68-.1,7-.34,2.23-.23,4.4-.82,6.46-1.74v-8.28c-1.76.33-3.4.72-5.06.94-2.69.36-5.4.46-8.07-.15-3.81-.88-6.37-3.05-7.14-7.02-.05-.25,0-.52,0-.85h23.71Z"/>
  <path class="cls-2" d="M34.07,34.53c.46-.03.87-.08,1.28-.08,3.52,0,7.04,0,10.56,0,1.24,0,1.27,0,1.69,1.18,1.75,4.85,3.48,9.7,5.21,14.55,3.21,9,6.43,17.99,9.64,26.99.65,1.81,1.29,3.62,1.91,5.43.14.42.21.87.32,1.37-.39.06-.62.13-.84.13-3.1,0-6.19-.03-9.29.03-.93.02-1.21-.49-1.45-1.2-1.05-3.11-2.11-6.21-3.18-9.31-.46-1.33-.46-1.34-1.89-1.34-4.93,0-9.85,0-14.78,0-1.3,0-1.32,0-1.74,1.3-.99,3.03-1.96,6.06-2.95,9.09-.47,1.44-.48,1.44-1.96,1.44-2.44,0-4.88,0-7.32,0-.45,0-.9-.06-1.55-.11.17-.66.25-1.15.41-1.61,1.83-5.27,3.66-10.53,5.5-15.79,1.89-5.39,3.79-10.78,5.68-16.17,1.19-3.4,2.35-6.82,3.55-10.22.55-1.55.97-3.12,1.01-4.78,0-.27.1-.54.17-.88ZM46.53,62.64c-1.96-6.28-3.83-12.48-5.92-18.94-1.06,3.44-2.06,6.52-2.94,9.62-.87,3.08-1.97,6.09-2.69,9.32h11.55Z"/>
  <path class="cls-2" d="M101.13,66.62h-23.71c0,.33-.04.6,0,.85.77,3.97,3.34,6.14,7.14,7.02,2.67.61,5.38.51,8.07.15,1.66-.22,3.3-.6,5.06-.94v8.28c-2.05.92-4.22,1.51-6.46,1.74-2.32.24-4.68.43-7,.34-5.42-.21-10.18-2.04-13.68-6.39-2.29-2.85-3.58-6.18-3.9-9.79-.39-4.38.21-8.68,1.82-12.81,2.64-6.78,8.5-10.07,15.07-10.21,2.4-.05,4.76.1,7.07.84,4.85,1.56,7.9,4.87,9.44,9.63.62,1.92.95,3.9.94,5.94,0,1.35.13,2.71.18,4.06.01.36-.03.73-.06,1.27ZM91.21,59.47c.07-3.92-3.52-7.34-7.7-6.88-3.79.42-6.51,4.01-5.99,6.88h13.69Z"/>
  <path class="cls-3" d="M46.53,62.64h-11.55c.72-3.22,1.82-6.24,2.69-9.32.88-3.11,1.88-6.18,2.94-9.62,2.09,6.46,3.96,12.66,5.92,18.94Z"/>
  <path class="cls-3" d="M91.21,59.47h-13.69c-.52-2.87,2.2-6.46,5.99-6.88,4.18-.46,7.77,2.96,7.7,6.88Z"/>
</svg>