<?xml version="1.0" encoding="UTF-8"?>
<svg id="Layer_1" xmlns="http://www.w3.org/2000/svg" viewBox="0 0 120 120">
  <defs>
    <style>
      .cls-1 {
        fill: #e97601;
      }

      .cls-2 {
        fill: #265787;
      }

      .cls-3 {
        fill: #fdfcfb;
      }
    </style>
  </defs>
  <path class="cls-1" d="M61.01,7.14c1.11,0,2.21,0,3.32,0,.93.52,1.95.93,2.79,1.57,12.73,9.73,25.51,19.4,38.11,29.3,6.12,4.81,10.05,11.24,12.09,18.78.36,1.33.73,2.65,1.1,3.97v9.97c-.25.54-.61,1.05-.74,1.61-3.33,14.25-12.49,23.19-25.87,28.15-3.04,1.13-6.3,1.69-9.46,2.51h-10.91c-1.02-.31-2.02-.71-3.06-.9-19.9-3.72-33.52-21.43-31.71-37.05-.91.71-1.64,1.27-2.35,1.85-6.92,5.64-13.79,11.34-20.76,16.92-4.99,4-10.28,3.07-13.3-2.17v-3.32c1.08-3.09,3.21-5.28,5.79-7.23,9.52-7.18,18.97-14.47,28.44-21.73,3.97-3.04,7.93-6.1,12.32-9.49-7.78,0-14.96.01-22.13-.01-1.1,0-2.22-.06-3.28-.32-4.47-1.08-5.68-5.39-2.45-8.68,2.06-2.09,4.63-2.85,7.53-2.85,14.39.02,28.79,0,43.18-.01.76,0,1.51,0,2.81,0-.86-.75-1.29-1.16-1.75-1.53-4.35-3.54-8.72-7.06-13.06-10.63-2.94-2.42-2.6-5.84.77-7.68.81-.44,1.71-.7,2.57-1.04ZM77.32,39.8l-.17-.64c-3.84,1.05-7.88,1.63-11.47,3.23-15.36,6.85-18.05,25.94-5.37,36.81,9.9,8.48,26.28,7.84,35.47-1.4,8.76-8.81,8.79-22.08-.03-30.7-5.09-4.97-11.29-7.35-18.42-7.3Z"/>
  <path class="cls-3" d="M77.32,39.8c7.13-.05,13.33,2.33,18.42,7.3,8.83,8.62,8.8,21.9.03,30.7-9.19,9.24-25.57,9.88-35.47,1.4-12.68-10.87-9.99-29.96,5.37-36.81,3.59-1.6,7.63-2.18,11.47-3.23l.17.64ZM77.88,76.2c.87-.07,1.74-.1,2.6-.2,6.7-.8,12.36-6.22,13.24-12.65.84-6.16-3.21-12.72-9.74-14.82-2.84-.91-6.09-1.23-9.05-.88-6.75.79-12.75,6.26-12.98,13.22-.29,8.66,6.83,15.47,15.93,15.33Z"/>
  <path class="cls-2" d="M77.88,76.2c-9.1.15-16.22-6.66-15.93-15.33.23-6.97,6.23-12.43,12.98-13.22,2.96-.35,6.21-.03,9.05.88,6.52,2.09,10.58,8.65,9.74,14.82-.88,6.43-6.54,11.85-13.24,12.65-.86.1-1.73.14-2.6.2Z"/>
</svg>