<?xml version="1.0" encoding="UTF-8"?>
<svg id="Layer_1" xmlns="http://www.w3.org/2000/svg" viewBox="0 0 120 120">
  <defs>
    <style>
      .cls-1 {
        fill: #2d3139;
      }

      .cls-2 {
        fill: #a159fe;
      }

      .cls-3 {
        fill: #0ace82;
      }

      .cls-4 {
        fill: #fe7262;
      }

      .cls-5 {
        fill: #1abbfd;
      }

      .cls-6 {
        fill: #2d2f37;
      }

      .cls-7 {
        fill: #f14e1e;
      }
    </style>
  </defs>
  <path class="cls-6" d="M98.13.99c.08,0,.16,0,.24,0,.15.07.3.17.46.2,3.74.71,7.16,2.16,10.21,4.43.74.55,1.44,1.13,2.17,1.7.06.09.12.19.19.28,1.18,1.38,2.48,2.68,3.51,4.16,2.5,3.59,3.9,7.6,4.15,11.99,0,.15.13.29.2.44,0,.08,0,.16,0,.24-.03.17-.08.34-.08.52,0,23.45,0,46.91,0,70.36,0,.17.05.35.07.52v.37c-.05.46-.09.92-.13,1.38,0,.08,0,.16,0,.24-.16.64-.35,1.26-.47,1.91-.47,2.58-1.35,5.02-2.72,7.24-1.05,1.7-2.34,3.26-3.52,4.88-.22.19-.45.37-.66.57-4.79,4.72-10.59,7.14-17.28,7.15-23.12.05-46.24.02-69.36.01-.91,0-1.83-.04-2.74-.15-4.6-.57-8.77-2.23-12.41-5.12-1.12-.89-2.14-1.91-3.2-2.87-.04-.08-.07-.17-.13-.23-2.76-3.16-4.66-6.77-5.6-10.87-.04-.17-.2-.3-.3-.46,0-.08,0-.16,0-.24,0-.26.05-.53.02-.79-.11-1.31-.34-2.62-.34-3.94-.02-23.17-.02-46.34,0-69.51,0-1.05.16-2.09.23-3.14.02-.29-.03-.58-.04-.87,0-.08,0-.16,0-.24.11-.18.27-.34.31-.53.75-3.71,2.27-7.07,4.59-10.05.85-1.09,1.82-2.09,2.73-3.13.07-.12.13-.24.2-.36.23-.19.46-.38.69-.57.09-.08.17-.16.26-.24.46-.35.93-.71,1.39-1.06.12-.1.25-.19.37-.29h.02c.13-.1.26-.18.39-.27l.02-.02c.14-.08.28-.15.42-.23.85-.47,1.7-.93,2.55-1.4.21-.03.44-.03.62-.11,2.28-.99,4.65-1.63,7.11-1.94.29-.04.56-.16.84-.24.3,0,.61,0,.91,0,.19.03.39.08.58.08,23.39,0,46.77,0,70.16,0,.22,0,.44-.05.65-.08.12,0,.25,0,.37,0,.78.09,1.55.18,2.33.26ZM75.75,45.1c.48-.1.95-.19,1.43-.29,4.37-.94,7.7-3.32,9.92-7.21,1.48-2.59,2.09-5.4,1.71-8.38-.16-1.23-.3-2.51-.74-3.65-2.36-6.03-6.86-9.33-13.3-9.6-4.98-.22-9.98-.03-14.96-.02-4.81,0-9.63-.02-14.44-.02-1.94,0-3.84.31-5.64,1.08-5.26,2.26-8.21,6.35-9.04,11.91-.36,2.41.06,4.84,1.05,7.11,1.83,4.22,4.91,7.07,9.33,8.41.87.26,1.77.44,2.66.66-.49.09-.99.17-1.48.27-7.99,1.73-12.96,9.51-11.3,17.18,1.16,5.34,4.39,8.98,9.53,10.87,1.01.37,2.1.55,3.15.81-.65.14-1.3.27-1.95.43-7.73,1.86-12.58,10-10.58,17.76,1.86,7.22,8.9,11.91,16.28,10.81,6.86-1.03,12.07-6.65,12.37-13.55.22-5.14.04-10.3.04-15.45,0-.29.02-.58.02-.88,0-3.98.01-7.96.02-11.93.22.87.39,1.76.67,2.62,2.31,7.31,9.98,11.8,17.7,9.68,7.77-2.13,12.32-9.85,10.27-17.82-1.12-4.38-3.85-7.59-7.98-9.45-1.48-.67-3.14-.92-4.72-1.36Z"/>
  <path class="cls-2" d="M59.81,61.43c0,3.98-.01,7.96-.02,11.93,0,.29-.01.58-.02.88-5.39,0-10.78,0-16.17,0-1.05-.27-2.13-.44-3.15-.81-5.13-1.89-8.37-5.53-9.53-10.87-1.66-7.67,3.31-15.45,11.3-17.18.49-.11.99-.18,1.48-.27.22,0,.45-.02.67-.02,5.14,0,10.27,0,15.41,0,0,0-.01.03-.01.03,0,.45.01.9.01,1.34,0,3.9.01,7.8.02,11.69,0,1.1,0,2.19,0,3.29Z"/>
  <path class="cls-4" d="M59.8,15.94c4.99,0,9.99-.19,14.96.02,6.44.28,10.94,3.57,13.3,9.6.45,1.14.59,2.42.74,3.65.38,2.98-.23,5.78-1.71,8.38-2.21,3.89-5.55,6.27-9.92,7.21-.47.1-.95.2-1.43.29-1.05.03-2.09.06-3.14.08-.08-.03-.15-.1-.23-.1-4.2,0-8.4.01-12.6.02v-.03c.01-9.71.01-19.42.01-29.13Z"/>
  <path class="cls-7" d="M59.8,15.94c0,9.71,0,19.42,0,29.13-5.14,0-10.27,0-15.41,0-.22,0-.45.01-.67.02-.89-.22-1.79-.4-2.66-.66-4.42-1.34-7.5-4.19-9.33-8.41-.98-2.27-1.4-4.71-1.05-7.11.82-5.57,3.78-9.65,9.04-11.91,1.79-.77,3.69-1.08,5.64-1.08,4.81,0,9.63.01,14.44.02Z"/>
  <path class="cls-3" d="M43.61,74.24c5.39,0,10.78,0,16.17,0,0,5.15.19,10.31-.04,15.45-.3,6.9-5.51,12.52-12.37,13.55-7.38,1.11-14.41-3.58-16.28-10.81-2-7.75,2.85-15.9,10.58-17.76.65-.16,1.3-.29,1.95-.43Z"/>
  <path class="cls-5" d="M72.61,45.18c1.05-.03,2.09-.06,3.14-.08,1.58.44,3.25.69,4.72,1.36,4.12,1.86,6.85,5.07,7.98,9.45,2.04,7.96-2.51,15.69-10.27,17.82-7.71,2.11-15.39-2.37-17.7-9.68-.27-.86-.45-1.75-.67-2.62,0-1.1,0-2.19,0-3.29.21-.92.37-1.86.64-2.76,1.59-5.44,6.53-9.56,12.16-10.19Z"/>
  <path class="cls-1" d="M72.61,45.18c-5.63.63-10.57,4.76-12.16,10.19-.27.91-.43,1.84-.64,2.76,0-3.9-.01-7.8-.02-11.69,0-.45,0-.9-.01-1.34,4.2,0,8.4-.02,12.6-.02.08,0,.15.06.23.1Z"/>
</svg>