<?xml version="1.0" encoding="UTF-8"?>
<svg id="Layer_1" xmlns="http://www.w3.org/2000/svg" viewBox="0 0 120 120">
  <defs>
    <style>
      .cls-1 {
        fill: #fdfdfb;
      }

      .cls-2 {
        fill: #e44d25;
      }

      .cls-3 {
        fill: #f38448;
      }
    </style>
  </defs>
  <path class="cls-2" d="M21.99,46.71c.2,4.33.41,8.67.61,13,.27,5.81.53,11.61.81,17.42.42,8.85.86,17.7,1.27,26.56.03.56.19.83.73,1.05,7.02,2.88,14.04,5.8,21.05,8.71,4.94,2.05,9.87,4.11,14.82,6.14.35.14.86.14,1.21,0,4.72-1.96,9.42-3.97,14.12-5.96,7.09-3,14.18-6.01,21.28-8.98.79-.33,1.12-.71,1.16-1.61.33-7.73.72-15.46,1.1-23.19.32-6.47.64-12.94.95-19.42.25-5.22.5-10.43.74-15.65.19-4.01.38-8.02.56-12.04.11-1.89.22-3.78.31-5.67,0-.11-.21-.22-.32-.33-.1,0-.19,0-.29,0-.34-.03-.69-.08-1.03-.08-26.34,0-52.69-.01-79.03-.01-.33,0-.67.03-1.11.05.14,2.2.27,4.28.41,6.36.12,2.58.23,5.16.35,7.73.1,1.98.2,3.95.3,5.93ZM26.46,19.39v-6.97c1.75,0,3.41,0,5.06,0,.99,0,.76.24.75.82-.03,1.69-.02,3.38-.02,5.06,0,.36,0,.72,0,1.07h5.4V2.08h-5.42v5.96h-5.84V2.07h-5.33v17.32h5.39ZM88.97,2.08v17.29h13.69v-4.25h-8.31V2.08h-5.38Z"/>
  <path class="cls-2" d="M102.11,26.74c.1,0,.19,0,.29,0,0,2,0,4,0,6-.19,4.01-.37,8.02-.56,12.04-.25,5.22-.49,10.43-.74,15.65-.31,6.47-.64,12.94-.95,19.42-.38,7.73-.77,15.46-1.1,23.19-.04.9-.37,1.28-1.16,1.61-7.1,2.97-14.19,5.98-21.28,8.98-4.71,1.99-9.4,3.99-14.12,5.96-.35.14-.86.14-1.21,0-4.95-2.02-9.88-4.09-14.82-6.14-7.01-2.91-14.03-5.82-21.05-8.71-.54-.22-.7-.49-.73-1.05-.41-8.85-.85-17.71-1.27-26.56-.28-5.8-.54-11.61-.81-17.42-.2-4.33-.4-8.67-.61-13,0-1.65,0-3.3-.03-4.95,0-.33-.17-.65-.26-.98-.12-2.58-.23-5.16-.35-7.73-.03-1.55-.06-3.1-.09-4.65,0-.37-.06-.74-.02-1.1.07-.72.66-.49,1.06-.49,26.23,0,52.46,0,78.69,0,.37,0,.75-.04,1.12-.06ZM39.69,76.14h0c.3.06.6.16.91.16,6.75,0,13.5,0,20.25,0h1.03v14.77c-.21-.03-.42-.03-.62-.09-3.16-1.08-6.31-2.18-9.48-3.24-.5-.17-.72-.43-.85-.92-.22-.83-.52-1.63-.73-2.46-.14-.54-.41-.7-.95-.69-2.65.03-5.3.01-7.95.01-.23,0-.47.03-.76.06.34,3.19.78,6.32.95,9.46.08,1.47.72,1.98,1.98,2.45,6.1,2.3,12.16,4.71,18.24,7.07.05.28.15.57.15.85.02,1.45,0,2.89,0,4.34,0,.85,0,1.7,0,2.69,1.24-.49,2.36-.92,3.46-1.38,4.47-1.9,8.94-3.82,13.42-5.71,3.91-1.66,7.83-3.28,11.73-4.96.29-.13.61-.56.64-.87.16-1.83.25-3.67.34-5.51.17-3.41.32-6.83.49-10.24.16-3.31.32-6.61.48-9.92.11-2.16.22-4.32.32-6.48.16-3.36.32-6.72.48-10.08.11-2.21.22-4.42.32-6.64.12-2.88.23-5.77.34-8.65,0-.24.06-.48.08-.71.07-1.4.13-2.81.19-4.24h-32.28c0,1.92,0,3.77,0,5.61,0,1.06,0,1.05-1.03,1.05-7.61,0-15.22,0-22.83,0-.3,0-.61.1-.91.15h0c-.01.27-.02.54-.03.8.22,2.83.45,5.65.66,8.48.37,4.8.73,9.6,1.09,14.41.24,3.25.47,6.51.71,9.76l.15.63Z"/>
  <path class="cls-2" d="M68.95,10.38c-.22-.96-.44-1.92-.67-2.87l-.27.03v11.78s-.02.05-.05.05h-4.35s-.05-.02-.05-.05V2.07s.02-.05.05-.05c2.26,0,4.48-.02,6.71.03.17,0,.42.42.49.68.69,2.59,1.34,5.18,2.01,7.77.08.32.18.64.28.97,0,.02.48.02.49,0,.1-.32.37-1.3.43-1.55.59-2.3,1.2-4.59,1.73-6.9.18-.81.52-1.05,1.34-1.02,2,.07,4,.03,6,.03h0c0,5.7,0,11.4,0,17.1,0,.07-.05.14-.08.23h-4.27s-.05-.02-.05-.05V7.25c-.15-.02-.1,0-.24-.03-.06.3-.41,1.55-.5,1.87-.83,3.24-1.66,6.48-2.5,9.78-.08.31-.36.53-.68.53-.53,0-1.04,0-1.56,0-1.94,0-1.92,0-2.38-1.85-.61-2.4-1.26-4.79-1.9-7.18Z"/>
  <path class="cls-2" d="M26.46,19.39h-5.39V2.07h5.33v5.98h5.84V2.08h5.42v17.28h-5.4c0-.35,0-.71,0-1.07,0-1.69-.07-3.71-.03-5.4.01-.57-.08-.49-.7-.48-1.65.03-3.31,0-5.06,0v6.97Z"/>
  <path class="cls-2" d="M42.57,6.39s-.07-.06-.12-.05c0-1.41,0-2.82,0-4.27h16.36v4.13c-.05.06-.11.13-.16.19-1.76,0-3.51,0-5.36,0v12.96h-5.39c0-.38,0-.7,0-1.02,0-3.75,0-7.49.01-11.24,0-.53-.09-.78-.69-.76-1.55.05-3.1.04-4.65.05Z"/>
  <path class="cls-2" d="M88.97,2.08h5.38v13.04h8.31v4.25h-13.69V2.08Z"/>
  <path class="cls-2" d="M102.11,26.74c-.37.02-.75.06-1.12.06-26.23,0-52.46,0-78.69,0-.41,0-.99-.22-1.06.49-.04.36.02.73.02,1.1.03,1.55.06,3.1.09,4.65-.13-2.08-.27-4.16-.41-6.36.44-.02.77-.05,1.11-.05,26.34,0,52.69,0,79.03.01.34,0,.69.05,1.03.08Z"/>
  <path class="cls-2" d="M102.4,32.73c0-2,0-4,0-6,.11.11.32.23.32.33-.09,1.89-.2,3.78-.31,5.67Z"/>
  <path class="cls-2" d="M21.7,40.78c.09.33.26.65.26.98.03,1.65.03,3.3.03,4.95-.1-1.98-.2-3.95-.3-5.93Z"/>
  <path class="cls-1" d="M42.25,6.37s-.03.04-.04.07c.01-.02.02-.05.03-.07,0,0,0,0,0,0Z"/>
  <path class="cls-1" d="M61.71,102.74c-6.08-2.37-12.14-4.78-18.24-7.07-1.26-.47-1.9-.98-1.98-2.45-.17-3.14-.61-6.27-.95-9.46.3-.02.53-.06.76-.06,2.65,0,5.3.01,7.95-.01.55,0,.82.15.95.69.21.83.51,1.63.73,2.46.13.48.35.75.85.92,3.17,1.06,6.32,2.16,9.48,3.24.19.07.41.06.62.09.05,0,.11.02.16,0,3.4-1.25,6.81-2.49,10.2-3.78.25-.1.51-.52.54-.82.32-2.98.58-5.96.87-8.94.04-.43.09-.87.15-1.4h-34.1s0,0,0,0c-.05-.21-.1-.42-.15-.63-.24-3.25-.47-6.51-.71-9.76-.36-4.8-.72-9.6-1.09-14.41-.22-2.83-.44-5.65-.66-8.48.01-.27.02-.53.03-.8,0,0,0,0,0,0,16.49,0,32.98,0,49.47,0,0,.58.03,1.06,0,1.53-.24,2.99-.52,5.97-.73,8.96-.05.72-.26.94-.99.94-5.81-.03-11.63-.02-17.44-.01-1.85,0-3.7.02-5.54.03-4.55,0-9.1-.02-13.65-.02-.04,0-.09.05-.13.07-.02.05-.05.1-.05.15.24,3.52.48,7.05.71,10.57.04.54.39.56.78.56,1.26,0,2.52-.02,3.77-.03,2.86-.02,5.73-.03,8.59-.05,1.23.01,2.46.03,3.69.03,6.05,0,12.1,0,18.16,0,1.05,0,1.07.01.99,1.01-.31,3.86-.64,7.73-.96,11.59-.43,5.3-.88,10.6-1.27,15.91-.05.71-.36,1.01-.95,1.26-5.32,2.23-10.63,4.49-15.95,6.72-1.27.53-2.59.97-3.88,1.46Z"/>
  <path class="cls-3" d="M61.71,102.74c1.3-.48,2.61-.92,3.88-1.46,5.32-2.23,10.63-4.49,15.95-6.72.6-.25.9-.55.95-1.26.39-5.31.83-10.61,1.27-15.91.32-3.86.65-7.73.96-11.59.08-1,.06-1.01-.99-1.01-6.05,0-12.1,0-18.16,0-1.23,0-2.46-.02-3.69-.03,0-3.75-.01-7.5-.02-11.25,1.85-.01,3.7-.03,5.54-.03,5.81,0,11.63-.01,17.44.01.73,0,.94-.22.99-.94.21-2.99.49-5.97.73-8.96.04-.47,0-.95,0-1.53-16.49,0-32.98,0-49.47,0,.3-.05.61-.15.91-.15,7.61,0,15.22,0,22.83,0,1.03,0,1.03,0,1.03-1.05,0-1.85,0-3.69,0-5.61h32.28c-.06,1.43-.12,2.84-.19,4.24-.01.24-.07.48-.08.71-.12,2.88-.22,5.77-.34,8.65-.09,2.21-.21,4.43-.32,6.64-.16,3.36-.32,6.72-.48,10.08-.1,2.16-.21,4.32-.32,6.48-.16,3.31-.32,6.61-.48,9.92-.16,3.41-.32,6.83-.49,10.24-.09,1.84-.18,3.68-.34,5.51-.03.31-.35.75-.64.87-3.9,1.68-7.82,3.3-11.73,4.96-4.48,1.9-8.94,3.82-13.42,5.71-1.1.47-2.22.89-3.46,1.38,0-.99,0-1.84,0-2.69,0-1.45,0-2.89,0-4.34,0-.28-.1-.57-.15-.85Z"/>
  <path class="cls-3" d="M39.69,76.15h34.1c-.06.54-.1.97-.15,1.4-.28,2.98-.55,5.96-.87,8.94-.03.3-.29.72-.54.82-3.39,1.29-6.79,2.53-10.2,3.78-.05.02-.11,0-.16,0,0-4.89,0-9.78,0-14.77h-1.03c-6.75,0-13.5,0-20.25,0-.3,0-.6-.1-.91-.16Z"/>
  <path class="cls-3" d="M37.1,42.06c0,.27-.02.53-.03.8,0-.27.02-.53.03-.8Z"/>
  <path class="cls-3" d="M39.53,75.51c.05.21.1.42.15.63-.05-.21-.1-.42-.15-.63Z"/>
  <path class="cls-2" d="M61.87,53.51c0,3.75.01,7.5.02,11.25-2.86.02-5.73.03-8.59.05-1.26,0-2.52.02-3.77.03-.39,0-.74-.02-.78-.56-.23-3.52-.48-7.05-.71-10.57,0-.05.03-.1.05-.15.04-.03.09-.07.13-.07,4.55,0,9.1.01,13.65.02Z"/>
</svg>