<?xml version="1.0" encoding="UTF-8"?>
<svg id="Layer_1" xmlns="http://www.w3.org/2000/svg" viewBox="0 0 120 120">
  <defs>
    <style>
      .cls-1 {
        fill: #eca902;
      }

      .cls-2 {
        fill: #361a14;
      }

      .cls-3 {
        fill: #f39800;
      }
    </style>
  </defs>
  <path class="cls-1" d="M4.37,107.66c-1.52-2.65-2.76-5.4-3.19-8.45-.19-1.31-.38-2.64-.38-3.96-.02-23.2-.06-46.41,0-69.61.03-11.11,7.45-19.63,17.33-21.92,1.33-.31,2.72-.48,4.09-.48,24.77-.03,49.54-.03,74.31-.01,5.38,0,10.03,1.99,14.05,5.52,3.86,3.4,6.24,7.66,7.16,12.71.21,1.17.36,2.37.36,3.55.02,23.43.03,46.87,0,70.3,0,1.64-.28,3.28-.44,4.92-.1.31-.21.61-.3.92-1.19,4.43-3.47,8.18-6.96,11.16-4.01,3.44-8.63,5.36-13.97,5.36-24.52,0-49.05,0-73.57,0-6.02,0-11.1-2.2-15.36-6.37-1.14-1.12-2.1-2.42-3.14-3.64ZM59.49,113.71c12.15,0,24.31,0,36.46,0,.82,0,1.65-.07,2.46-.19,9.42-1.34,15.69-9.64,15.67-18.05-.06-23.34-.03-46.68-.01-70.02,0-3.6-.93-6.92-2.93-9.89-3.67-5.46-8.81-8.37-15.42-8.38-24.08-.03-48.16-.02-72.23,0-1.05,0-2.11.06-3.15.21-4.01.59-7.45,2.39-10.23,5.28-3.57,3.7-5.27,8.2-5.26,13.37.03,22.97.01,45.94.01,68.91,0,5.8,2.13,10.66,6.55,14.44,3.29,2.82,7.14,4.31,11.49,4.32,12.2.02,24.4,0,36.6,0Z"/>
  <path class="cls-2" d="M59.49,113.71c-12.2,0-24.4.01-36.6,0-4.36,0-8.2-1.5-11.49-4.32-4.41-3.78-6.55-8.64-6.55-14.44,0-22.97.01-45.94-.01-68.91,0-5.18,1.69-9.67,5.26-13.37,2.78-2.89,6.23-4.69,10.23-5.28,1.04-.15,2.1-.21,3.15-.21,24.08-.01,48.16-.03,72.23,0,6.61,0,11.75,2.92,15.42,8.38,2,2.97,2.93,6.29,2.93,9.89-.02,23.34-.05,46.68.01,70.02.02,8.41-6.25,16.71-15.67,18.05-.81.12-1.64.18-2.46.19-12.15.01-24.31,0-36.46,0ZM38.66,87.23c1.3-3.91,2.6-7.82,3.93-11.81h17.42c1.3,3.95,2.58,7.87,3.86,11.76h11.76c-5.98-16.72-11.9-33.3-17.81-49.82h-13.21c-.45,2.13-.66,4.22-1.34,6.14-4.72,13.28-9.54,26.53-14.32,39.79-.46,1.27-.89,2.56-1.36,3.93h11.05ZM80.14,87.18h10.34v-37.7c-1.96-.28-9.39-.2-10.34.11v37.59ZM79.44,39.53c-.34,3.35,2.83,6.09,5.95,6.04,3.39-.05,6.01-2.68,6.02-6.07,0-3.46-3.1-6-6.12-5.97-3.12.03-6.17,2.87-5.85,6Z"/>
  <path class="cls-3" d="M38.66,87.23h-11.05c.47-1.37.9-2.66,1.36-3.93,4.78-13.26,9.6-26.51,14.32-39.79.68-1.92.89-4.01,1.34-6.14h13.21c5.9,16.51,11.83,33.1,17.81,49.82h-11.76c-1.28-3.89-2.56-7.81-3.86-11.76h-17.42c-1.33,3.99-2.63,7.9-3.93,11.81ZM56.74,65.36c-.33-2.02-5.19-17.49-5.8-18.39-1.81,6.15-3.59,12.21-5.41,18.39h11.21Z"/>
  <path class="cls-3" d="M80.14,87.18v-37.59c.95-.31,8.38-.39,10.34-.11v37.7h-10.34Z"/>
  <path class="cls-3" d="M79.44,39.53c-.32-3.12,2.73-5.96,5.85-6,3.02-.03,6.12,2.51,6.12,5.97,0,3.39-2.63,6.01-6.02,6.07-3.12.05-6.29-2.69-5.95-6.04Z"/>
  <path class="cls-2" d="M56.74,65.36h-11.21c1.82-6.18,3.6-12.24,5.41-18.39.61.9,5.47,16.36,5.8,18.39Z"/>
</svg>