<?xml version="1.0" encoding="UTF-8"?>
<svg id="Layer_1" xmlns="http://www.w3.org/2000/svg" viewBox="0 0 120 120">
  <defs>
    <style>
      .cls-1 {
        fill: #98e63e;
      }

      .cls-2 {
        fill: #97e63e;
      }

      .cls-3 {
        fill: #1e3101;
      }

      .cls-4 {
        fill: #091500;
      }

      .cls-5 {
        fill: #1f3202;
      }
    </style>
  </defs>
  <path class="cls-3" d="M-.05,100.32c0-27.31,0-54.62,0-81.93.31-.66.69-1.3.91-1.99C3.12,9.03,7.91,4.21,15.3,1.96c.69-.21,1.33-.6,1.99-.9,28.01,0,56.02,0,84.04,0,.25.17.47.45.75.51,7.47,1.7,12.82,5.89,15.63,13.13.48,1.24.99,2.47,1.48,3.7v81.93c-.35.83-.76,1.64-1.04,2.49-2.16,6.64-6.58,11.12-13.05,13.6-1.23.47-2.51.83-3.77,1.23H16.76c-.65-.34-1.27-.78-1.96-1.01-6.92-2.31-11.49-6.94-13.83-13.83-.29-.85-.68-1.67-1.02-2.5ZM25.64,31.54c-.16.83-.45,1.67-.45,2.5-.03,15.48-.03,30.96,0,46.44,0,.83.3,1.66.46,2.49.68.35,1.36,1.01,2.03,1,2.92-.06,5.84-.32,9.07-.53v-15.36c4.87-.81,9.49-1.21,13.89-2.39,9.04-2.43,13.25-8.72,12.87-18.39-.31-7.96-5.66-14.54-14.28-15.64-7.57-.96-15.32-.45-22.99-.56-.2,0-.4.29-.6.44ZM85.95,31.92c-2.9.36-5.56.8-8.25.98-1.91.13-2.52,1.09-2.63,2.82-.16,2.59-.44,5.17-.69,7.96h-5.02v9.68c1.84-.16,3.35-.28,5.1-.43,0,1.28,0,2.23,0,3.18.01,6.12-.06,12.25.07,18.37.11,4.76,2.56,8.56,6.9,9.3,3.4.58,7.04-.17,10.56-.47.47-.04,1.22-.89,1.25-1.4.14-2.23.06-4.47.06-6.79-1.26,0-2.13,0-2.99,0-3.22-.03-4.5-.94-4.6-4.06-.18-5.91-.05-11.83-.05-17.37,2.74-.29,5.28-.55,7.84-.82v-9.32h-7.57v-11.62Z"/>
  <path class="cls-1" d="M25.64,31.54c.2-.15.4-.44.6-.44,7.67.11,15.42-.4,22.99.56,8.63,1.09,13.97,7.67,14.28,15.64.38,9.68-3.83,15.96-12.87,18.39-4.4,1.18-9.02,1.58-13.89,2.39v15.36c-3.22.21-6.14.46-9.07.53-.67.01-1.36-.65-2.03-1,0-17.15,0-34.29-.01-51.44ZM36.82,57.68c3.82-.5,7.4-.64,10.79-1.51,3.1-.8,4.81-3.2,4.96-6.6.15-3.32-.69-6.12-3.78-7.7-3.81-1.94-7.86-1.53-11.97-1.16v16.97Z"/>
  <path class="cls-2" d="M85.95,31.92v11.62h7.57v9.32c-2.56.27-5.1.54-7.84.82,0,5.54-.13,11.46.05,17.37.09,3.12,1.38,4.03,4.6,4.06.87,0,1.73,0,2.99,0,0,2.32.08,4.56-.06,6.79-.03.51-.78,1.36-1.25,1.4-3.52.3-7.16,1.06-10.56.47-4.34-.75-6.8-4.54-6.9-9.3-.14-6.12-.06-12.25-.07-18.37,0-.95,0-1.89,0-3.18-1.76.15-3.26.28-5.1.43v-9.68h5.02c.25-2.8.53-5.38.69-7.96.1-1.73.71-2.69,2.63-2.82,2.69-.18,5.35-.62,8.25-.98Z"/>
  <path class="cls-4" d="M25.64,31.54c0,17.15,0,34.29.01,51.44-.16-.83-.46-1.66-.46-2.49-.03-15.48-.03-30.96,0-46.44,0-.83.3-1.67.45-2.5Z"/>
  <path class="cls-5" d="M36.82,57.68v-16.97c4.1-.37,8.16-.78,11.97,1.16,3.1,1.58,3.94,4.38,3.78,7.7-.16,3.4-1.86,5.8-4.96,6.6-3.39.87-6.97,1.01-10.79,1.51Z"/>
</svg>