<?xml version="1.0" encoding="UTF-8"?>
<svg id="Layer_1" xmlns="http://www.w3.org/2000/svg" viewBox="0 0 120 120">
  <defs>
    <style>
      .cls-1 {
        fill: #5ca2d7;
      }

      .cls-2 {
        fill: #4da1d8;
      }

      .cls-3 {
        fill: #162332;
      }
    </style>
  </defs>
  <path class="cls-2" d="M2.61,104.87c-.48-1.67-1.06-3.33-1.43-5.03-.29-1.34-.46-2.72-.46-4.09-.03-23.39-.09-46.78.01-70.17C.78,14.4,8.76,5.64,18.86,3.78c1.08-.2,2.19-.31,3.28-.31,24.82-.02,49.63-.03,74.45,0,5.54,0,10.27,2.17,14.31,5.91,3.6,3.33,5.87,7.4,6.72,12.23.24,1.35.4,2.73.4,4.1.02,23.07.01,46.13.02,69.2,0,2.97-.45,5.85-1.42,8.66-.1.3-.18.61-.27.92-.18.27-.4.51-.53.8-1.23,2.74-3.06,5.02-5.28,7.01-3.9,3.51-8.46,5.57-13.74,5.58-24.95.05-49.91.02-74.86.02-.64,0-1.3.02-1.93-.08-6.01-.9-10.92-3.74-14.64-8.53-1.06-1.37-1.86-2.94-2.79-4.42ZM59.28,113.96c12.29,0,24.58,0,36.88,0,.68,0,1.37-.09,2.05-.17,9.01-1.18,15.83-9.14,15.8-18.36-.08-23.16-.03-46.31-.02-69.47,0-2.18-.36-4.28-1.06-6.35-2.43-7.17-9.6-12.21-17.04-12.2-24.12.01-48.25,0-72.37.01-1.1,0-2.2.06-3.29.22-4.01.58-7.45,2.4-10.23,5.29-3.49,3.62-5.23,8.02-5.23,13.1.02,23.06.01,46.13,0,69.19,0,5.93,2.21,10.84,6.76,14.62,3.21,2.66,6.94,4.12,11.15,4.13,12.2.02,24.4,0,36.6,0Z"/>
  <path class="cls-3" d="M59.28,113.96c-12.2,0-24.4.01-36.6,0-4.21,0-7.95-1.46-11.15-4.13-4.55-3.78-6.76-8.69-6.76-14.62,0-23.06.01-46.13,0-69.19,0-5.08,1.74-9.48,5.23-13.1,2.78-2.88,6.22-4.71,10.23-5.29,1.09-.16,2.19-.22,3.29-.22,24.12-.01,48.25,0,72.37-.01,7.44,0,14.62,5.03,17.04,12.2.7,2.07,1.06,4.17,1.06,6.35-.01,23.16-.06,46.31.02,69.47.03,9.22-6.79,17.18-15.8,18.36-.68.09-1.37.17-2.05.17-12.29.01-24.58,0-36.88,0ZM28.69,33.71v49.13c1.57.28,9.36.23,10.42-.08v-7.56c0-1.24-.01-2.49,0-3.73.02-1.26-.08-2.54.07-3.86,2.65,0,5.14,0,7.62,0,4.2,0,8.02-1.17,11.21-3.92,4.71-4.07,6.76-9.24,5.96-15.48-1-7.86-7.84-14.46-16.34-14.56-5.84-.07-11.69-.02-17.53-.01-.45,0-.9.04-1.41.07ZM69.27,81.76c.19.12.34.24.5.31,5.16,2.2,10.5,2.9,16.01,1.72,3.93-.84,7.21-2.75,9.23-6.38,2.14-3.85,2.1-8.26-.8-11.88-1.64-2.04-3.79-3.48-6.16-4.54-1.68-.75-3.44-1.29-5.12-2.03-.87-.38-1.76-.85-2.45-1.49-1.4-1.28-1.03-3.05.75-3.7.8-.3,1.69-.47,2.54-.5,2.85-.1,5.53.72,8.15,1.76.83.33,1.66.67,2.5,1,.07-.24.12-.32.12-.41,0-2.35.02-4.69.02-7.04,0-1.87-.03-1.91-1.84-2.52-3.57-1.21-7.24-1.7-10.99-1.35-2.33.22-4.61.71-6.73,1.83-6.27,3.3-7.66,11.47-3.72,16.58,1.55,2.02,3.61,3.39,5.92,4.39,1.64.71,3.36,1.24,4.99,1.98,1.03.47,2.08,1.04,2.89,1.8,1.62,1.53,1.08,3.34-1.08,3.93-.74.2-1.53.29-2.31.32-2.64.08-5.2-.42-7.73-1.14-1.53-.43-3.06-.87-4.68-1.33v8.69Z"/>
  <path class="cls-1" d="M28.69,33.71c.52-.03.97-.07,1.41-.07,5.84,0,11.69-.06,17.53.01,8.5.1,15.34,6.7,16.34,14.56.8,6.25-1.25,11.41-5.96,15.48-3.18,2.75-7.01,3.93-11.21,3.92-2.48,0-4.97,0-7.62,0-.15,1.32-.06,2.59-.07,3.86-.02,1.24,0,2.48,0,3.73v7.56c-1.06.31-8.85.36-10.42.08v-49.13ZM39.21,42.67v15.84c2.35,0,4.6.04,6.85,0,3.91-.08,7.25-3.14,7.66-6.98.43-4.04-2.2-7.73-6.17-8.57-2.73-.58-5.49-.14-8.34-.28Z"/>
  <path class="cls-1" d="M69.27,81.76v-8.69c1.62.46,3.15.9,4.68,1.33,2.53.72,5.09,1.22,7.73,1.14.77-.02,1.56-.11,2.31-.32,2.16-.59,2.7-2.4,1.08-3.93-.81-.77-1.86-1.34-2.89-1.8-1.63-.74-3.35-1.27-4.99-1.98-2.3-1-4.36-2.37-5.92-4.39-3.93-5.11-2.55-13.28,3.72-16.58,2.12-1.11,4.4-1.61,6.73-1.83,3.75-.35,7.42.14,10.99,1.35,1.81.61,1.84.65,1.84,2.52,0,2.35,0,4.69-.02,7.04,0,.09-.05.17-.12.41-.84-.34-1.67-.67-2.5-1-2.62-1.03-5.3-1.86-8.15-1.76-.86.03-1.74.2-2.54.5-1.78.65-2.15,2.42-.75,3.7.69.63,1.58,1.11,2.45,1.49,1.68.73,3.45,1.28,5.12,2.03,2.37,1.06,4.52,2.5,6.16,4.54,2.91,3.62,2.95,8.03.8,11.88-2.02,3.62-5.3,5.54-9.23,6.38-5.51,1.18-10.85.48-16.01-1.72-.16-.07-.31-.19-.5-.31Z"/>
  <path class="cls-3" d="M39.21,42.67c2.85.13,5.62-.3,8.34.28,3.97.84,6.59,4.53,6.17,8.57-.41,3.84-3.74,6.9-7.66,6.98-2.25.04-4.5,0-6.85,0v-15.84Z"/>
</svg>