<?xml version="1.0" encoding="UTF-8"?>
<svg id="Layer_1" xmlns="http://www.w3.org/2000/svg" viewBox="0 0 120 120">
  <defs>
    <style>
      .cls-1 {
        fill: #323232;
      }

      .cls-2 {
        fill: #666;
      }
    </style>
  </defs>
  <g>
    <path class="cls-1" d="M18.66,28.6h5.57v19.47h23.19v-19.47h5.57v44.84h-5.57v-20.24h-23.19v20.24h-5.57V28.6Z"/>
    <path class="cls-1" d="M59.8,57.1c0-9.93,6.28-16.72,15.5-16.72s15.24,5.83,15.5,15.5c0,.7-.06,1.47-.13,2.24h-25.37v.45c.19,6.21,4.1,10.57,10.31,10.57,4.61,0,8.2-2.43,9.29-6.66h5.32c-1.28,6.53-6.66,11.34-14.22,11.34-9.8,0-16.2-6.73-16.2-16.72ZM85.17,53.77c-.51-5.64-4.35-8.78-9.8-8.78-4.8,0-9.22,3.46-9.74,8.78h19.54Z"/>
    <path class="cls-1" d="M18.66,81.44h74.98c2.63,0,3.59-1.09,3.59-3.59v-37.09h5.25v36.96c0,5.76-2.43,8.52-8.52,8.52H18.66v-4.81ZM96.46,31.87c0-1.99,1.47-3.4,3.4-3.4s3.4,1.41,3.4,3.4-1.47,3.4-3.4,3.4-3.4-1.41-3.4-3.4Z"/>
  </g>
  <g>
    <path class="cls-2" d="M18.66,92.43h1.36v.93h-1.36v-.93Z"/>
    <path class="cls-2" d="M20.39,89.89h1.38c.33,0,.58.1.75.31s.26.5.26.89c0,.24-.03.43-.1.58-.07.15-.16.29-.3.39.13.03.25.08.34.15s.17.15.23.25c.06.1.1.21.13.33.03.12.04.25.04.4,0,.22-.03.41-.09.58-.06.17-.14.31-.25.43-.11.11-.23.2-.39.26-.15.06-.32.09-.51.09h-1.49v-4.65ZM21.32,91.72h.17c.29,0,.44-.15.44-.45s-.15-.45-.44-.45h-.17v.9ZM21.32,93.6h.2c.23,0,.4-.04.5-.12s.15-.2.15-.37-.05-.3-.15-.38c-.1-.08-.27-.11-.5-.11h-.2v.99Z"/>
    <path class="cls-2" d="M23.53,90.16c0-.09.01-.17.04-.24.03-.08.06-.14.11-.2.04-.06.09-.1.15-.14.06-.03.12-.05.19-.05s.13.02.19.05c.06.03.11.08.15.14.04.06.08.12.1.2.02.07.04.15.04.24s-.01.17-.04.24c-.02.07-.06.14-.1.2-.04.06-.1.1-.15.14-.06.03-.12.05-.19.05s-.13-.02-.19-.05-.11-.08-.15-.14c-.04-.06-.08-.12-.11-.2-.02-.08-.04-.16-.04-.24ZM24.45,91.38v4.74h-.86v-4.74h.86Z"/>
    <path class="cls-2" d="M24.94,92.93c0-.24.04-.45.11-.66.07-.2.17-.38.3-.53.13-.15.28-.27.46-.35s.37-.13.59-.13.4.04.58.13.33.2.46.35c.13.15.23.33.31.54s.11.44.11.69-.04.48-.11.69-.18.38-.31.54c-.13.15-.29.27-.47.35-.18.08-.38.12-.59.12s-.4-.04-.58-.12c-.18-.08-.33-.2-.46-.35-.13-.15-.23-.33-.3-.55-.07-.21-.11-.45-.11-.71ZM25.33,90.28c0-.08.01-.16.04-.23.02-.07.06-.13.1-.19.04-.06.09-.1.15-.13.06-.03.12-.05.18-.05s.12.02.18.05c.06.03.11.08.15.13.04.06.07.12.1.19.02.07.04.15.04.23,0,.17-.04.31-.13.43s-.2.18-.33.18-.24-.06-.33-.18c-.09-.12-.13-.26-.13-.43ZM25.84,92.94c0,.11.02.2.04.29.03.09.07.17.12.23.05.07.11.12.18.15.07.04.14.06.22.06s.15-.02.22-.06.13-.09.18-.15c.05-.07.09-.14.12-.23.03-.09.04-.18.04-.29s-.01-.19-.04-.28c-.03-.09-.07-.16-.12-.23-.05-.07-.11-.12-.18-.15s-.14-.06-.22-.06-.15.02-.22.06c-.07.04-.13.09-.18.15-.05.07-.09.14-.12.23-.03.09-.04.18-.04.28ZM26.54,90.28c0-.08.01-.15.04-.23s.06-.14.1-.19c.04-.06.09-.1.15-.13.06-.03.11-.05.18-.05s.12.02.18.05c.05.03.1.08.15.13.04.06.08.12.1.19.02.07.04.15.04.23s-.01.16-.04.23c-.02.07-.06.14-.1.19-.04.06-.09.1-.15.13-.06.03-.11.05-.18.05s-.12-.02-.18-.05c-.06-.03-.11-.07-.15-.13-.04-.06-.07-.12-.1-.2-.02-.07-.04-.15-.04-.24Z"/>
    <path class="cls-2" d="M28.35,91.38h.86v.52c.09-.19.2-.33.34-.43.13-.1.29-.15.46-.15h.07s.06,0,.09.01v1.07c-.11-.07-.24-.11-.37-.11-.2,0-.35.08-.45.23-.1.15-.15.38-.15.68v1.35h-.86v-3.16Z"/>
    <path class="cls-2" d="M30.55,91.38h.86v.4c.12-.19.23-.31.35-.37.12-.07.26-.1.42-.1.17,0,.32.04.44.11.12.07.22.17.31.3.07.11.12.23.14.36.03.13.04.28.04.45v2.01h-.86v-1.6c0-.15,0-.28-.03-.38s-.05-.17-.09-.23c-.04-.05-.08-.08-.13-.11-.05-.02-.1-.03-.15-.03-.15,0-.26.06-.33.17-.08.11-.12.28-.12.48v1.69h-.86v-3.16Z"/>
    <path class="cls-2" d="M33.97,93.36h.8l-.87,2.04h-.55l.62-2.04Z"/>
    <path class="cls-2" d="M37.59,91.38l.58,1.62.59-1.62h.96l-1.26,3.16h-.57l-1.25-3.16h.97Z"/>
    <path class="cls-2" d="M40.67,93.15c0,.48.17.72.52.72.19,0,.33-.1.42-.29h.83c-.17.72-.59,1.08-1.26,1.08-.21,0-.39-.04-.56-.12s-.32-.2-.44-.34c-.12-.15-.22-.33-.28-.53-.07-.21-.1-.44-.1-.69s.03-.5.09-.71c.06-.21.15-.39.27-.54.12-.15.26-.26.42-.34s.35-.12.56-.12.39.04.55.12.3.2.42.35.2.34.26.56.09.47.09.74v.12h-1.8ZM41.67,92.5c-.03-.16-.09-.28-.18-.38-.09-.09-.2-.14-.32-.14-.13,0-.24.04-.33.14-.08.09-.14.22-.16.38h.98Z"/>
    <path class="cls-2" d="M43.95,92.31v2.23h-.86v-2.23h-.29v-.93h.29v-.95h.86v.95h.49v.93h-.49Z"/>
    <path class="cls-2" d="M45.58,93.15c0,.48.17.72.52.72.19,0,.33-.1.42-.29h.83c-.17.72-.59,1.08-1.26,1.08-.21,0-.39-.04-.56-.12s-.32-.2-.44-.34c-.12-.15-.22-.33-.28-.53-.07-.21-.1-.44-.1-.69s.03-.5.09-.71c.06-.21.15-.39.27-.54.12-.15.26-.26.42-.34s.35-.12.56-.12.39.04.55.12.3.2.42.35.2.34.26.56.09.47.09.74v.12h-1.8ZM46.58,92.5c-.03-.16-.09-.28-.18-.38-.09-.09-.2-.14-.32-.14-.13,0-.24.04-.33.14-.08.09-.14.22-.16.38h.98Z"/>
    <path class="cls-2" d="M47.87,91.38h.86v.52c.09-.19.2-.33.34-.43.13-.1.29-.15.46-.15h.07s.06,0,.09.01v1.07c-.11-.07-.24-.11-.37-.11-.2,0-.35.08-.45.23-.1.15-.15.38-.15.68v1.35h-.86v-3.16Z"/>
    <path class="cls-2" d="M51.98,91.38h.86v3.16h-.86v-.35c-.18.3-.43.45-.74.45-.18,0-.34-.04-.49-.13s-.28-.2-.39-.35c-.11-.15-.2-.33-.26-.54-.06-.21-.09-.43-.09-.67,0-.23.03-.44.09-.64.06-.2.14-.38.25-.53.11-.15.24-.27.38-.36.15-.09.31-.13.49-.13.3,0,.55.14.75.41v-.31ZM50.9,92.95c0,.1.01.2.04.29.03.09.07.17.12.23.05.07.11.12.18.15.07.04.14.06.22.06.07,0,.15-.02.22-.06.07-.04.13-.09.18-.15.05-.07.09-.14.12-.23.03-.08.04-.18.04-.28s-.02-.19-.04-.28c-.03-.09-.07-.16-.12-.23-.05-.07-.11-.12-.18-.15-.07-.04-.14-.06-.22-.06-.08,0-.15.02-.22.06-.07.04-.13.09-.18.15-.05.07-.09.14-.12.22-.03.09-.04.18-.04.28Z"/>
    <path class="cls-2" d="M53.42,91.38h.86v.4c.12-.19.23-.31.35-.37.12-.07.26-.1.42-.1.17,0,.32.04.44.11.12.07.22.17.31.3.07.11.12.23.14.36.03.13.04.28.04.45v2.01h-.86v-1.6c0-.15,0-.28-.03-.38s-.05-.17-.09-.23c-.04-.05-.08-.08-.13-.11-.05-.02-.1-.03-.15-.03-.15,0-.26.06-.33.17-.08.11-.12.28-.12.48v1.69h-.86v-3.16Z"/>
    <path class="cls-2" d="M59.11,92.31v2.23h-.86v-2.23h-.31v-.93h.31v-.47c0-.26.02-.47.06-.63.03-.13.08-.25.15-.37.07-.11.15-.21.24-.29.09-.08.19-.15.3-.19.11-.05.21-.07.32-.07.07,0,.14,0,.2.03.06.02.12.05.19.08v.98c-.06-.04-.11-.07-.16-.08-.05-.02-.1-.03-.15-.03-.03,0-.07,0-.11.02-.04.01-.07.04-.1.09-.03.04-.05.11-.06.19s-.02.2-.02.34v.39h.6v.93h-.6Z"/>
    <path class="cls-2" d="M60.03,91.38h.86v.52c.09-.19.2-.33.34-.43.13-.1.29-.15.46-.15h.07s.06,0,.09.01v1.07c-.11-.07-.24-.11-.37-.11-.2,0-.35.08-.45.23-.1.15-.15.38-.15.68v1.35h-.86v-3.16Z"/>
    <path class="cls-2" d="M64.14,91.38h.86v3.16h-.86v-.35c-.18.3-.43.45-.74.45-.18,0-.34-.04-.49-.13s-.28-.2-.39-.35c-.11-.15-.2-.33-.26-.54-.06-.21-.09-.43-.09-.67,0-.23.03-.44.09-.64.06-.2.14-.38.25-.53.11-.15.24-.27.38-.36.15-.09.31-.13.49-.13.3,0,.55.14.75.41v-.31ZM62.93,90.16c0-.22.07-.4.2-.52.13-.13.31-.19.54-.19s.42.07.55.2c.13.13.19.31.19.53s-.06.4-.19.53c-.13.13-.31.2-.55.2s-.42-.07-.54-.19c-.13-.13-.2-.31-.2-.54ZM63.06,92.95c0,.1.01.2.04.29.03.09.07.17.12.23.05.07.11.12.18.15.07.04.14.06.22.06.07,0,.15-.02.22-.06.07-.04.13-.09.18-.15.05-.07.09-.14.12-.23.03-.08.04-.18.04-.28s-.02-.19-.04-.28c-.03-.09-.07-.16-.12-.23-.05-.07-.11-.12-.18-.15-.07-.04-.14-.06-.22-.06-.08,0-.15.02-.22.06-.07.04-.13.09-.18.15-.05.07-.09.14-.12.22-.03.09-.04.18-.04.28ZM63.38,90.16c0,.19.09.29.28.29s.29-.09.29-.28-.1-.28-.29-.28c-.09,0-.15.02-.2.07-.05.05-.08.11-.08.2Z"/>
    <path class="cls-2" d="M65.58,91.38h.86v.4c.12-.19.23-.31.35-.37.12-.07.26-.1.42-.1.17,0,.32.04.44.11.12.07.22.17.31.3.07.11.12.23.14.36.03.13.04.28.04.45v2.01h-.86v-1.6c0-.15,0-.28-.03-.38s-.05-.17-.09-.23c-.04-.05-.08-.08-.13-.11-.05-.02-.1-.03-.15-.03-.15,0-.26.06-.33.17-.08.11-.12.28-.12.48v1.69h-.86v-3.16Z"/>
    <path class="cls-2" d="M71.95,92.19c-.16-.11-.31-.16-.46-.16-.08,0-.14.02-.19.06-.05.04-.07.1-.07.16,0,.04,0,.07.01.09,0,.02.02.04.05.07.03.02.07.04.12.06.05.02.12.04.21.06.24.06.41.17.53.33.12.16.18.36.18.61,0,.19-.03.35-.09.5s-.14.27-.24.37c-.1.1-.22.18-.36.24-.14.06-.3.08-.47.08-.33,0-.65-.12-.97-.37l.31-.79c.24.21.47.32.68.32.08,0,.14-.02.19-.07.05-.04.08-.1.08-.17,0-.04,0-.07-.01-.1s-.02-.05-.05-.07-.06-.04-.11-.06c-.05-.02-.11-.04-.19-.06-.26-.07-.45-.17-.56-.31-.11-.14-.16-.33-.16-.57,0-.18.02-.33.08-.48.05-.14.12-.26.22-.36.1-.1.21-.18.34-.23s.28-.08.45-.08c.27,0,.53.07.78.2l-.29.73Z"/>
    <path class="cls-2" d="M73.61,96.12h-.86v-4.74h.86v.35c.18-.3.43-.45.75-.45.17,0,.33.04.49.13.15.09.28.21.39.36s.2.33.26.54c.06.2.09.42.09.66s-.03.45-.09.65c-.06.2-.15.38-.26.53-.11.15-.24.27-.39.36-.15.09-.31.13-.48.13-.3,0-.56-.14-.76-.41v1.88ZM74.69,92.97c0-.1-.01-.19-.04-.28-.03-.09-.07-.16-.12-.23-.05-.07-.11-.12-.18-.16-.07-.04-.14-.06-.22-.06s-.15.02-.21.06c-.07.04-.12.09-.17.15-.05.07-.09.14-.12.23-.03.09-.04.18-.04.28s.02.19.04.28c.03.09.07.16.12.23.05.07.11.11.18.15.07.04.14.06.22.06s.15-.02.21-.06c.07-.04.12-.09.17-.15s.09-.14.12-.23c.03-.08.05-.18.05-.27Z"/>
    <path class="cls-2" d="M76.84,93.15c0,.48.17.72.52.72.19,0,.33-.1.42-.29h.83c-.17.72-.59,1.08-1.26,1.08-.21,0-.39-.04-.56-.12s-.32-.2-.44-.34c-.12-.15-.22-.33-.28-.53-.07-.21-.1-.44-.1-.69s.03-.5.09-.71c.06-.21.15-.39.27-.54.12-.15.26-.26.42-.34s.35-.12.56-.12.39.04.55.12.3.2.42.35.2.34.26.56.09.47.09.74v.12h-1.8ZM77.85,92.5c-.03-.16-.09-.28-.18-.38-.09-.09-.2-.14-.32-.14-.13,0-.24.04-.33.14-.08.09-.14.22-.16.38h.98Z"/>
    <path class="cls-2" d="M79.99,89.43v5.11h-.86v-5.11h.86Z"/>
    <path class="cls-2" d="M80.52,90.16c0-.09.01-.17.04-.24.03-.08.06-.14.11-.2.04-.06.09-.1.15-.14.06-.03.12-.05.19-.05s.13.02.19.05c.06.03.11.08.15.14.04.06.08.12.1.2.02.07.04.15.04.24s-.01.17-.04.24c-.02.07-.06.14-.1.2-.04.06-.1.1-.15.14-.06.03-.12.05-.19.05s-.13-.02-.19-.05-.11-.08-.15-.14c-.04-.06-.08-.12-.11-.2-.02-.08-.04-.16-.04-.24ZM81.44,91.38v3.16h-.86v-3.16h.86Z"/>
    <path class="cls-2" d="M82.02,91.38h.86v.4c.12-.19.23-.31.35-.37.12-.07.26-.1.42-.1.17,0,.32.04.44.11.12.07.22.17.31.3.07.11.12.23.14.36.03.13.04.28.04.45v2.01h-.86v-1.6c0-.15,0-.28-.03-.38s-.05-.17-.09-.23c-.04-.05-.08-.08-.13-.11-.05-.02-.1-.03-.15-.03-.15,0-.26.06-.33.17-.08.11-.12.28-.12.48v1.69h-.86v-3.16Z"/>
    <path class="cls-2" d="M87.04,89.43h.86v5.11h-.86v-.35c-.18.3-.43.45-.74.45-.18,0-.34-.04-.49-.13s-.28-.2-.39-.36c-.11-.15-.2-.33-.26-.54-.06-.21-.09-.43-.09-.67,0-.23.03-.44.09-.64.06-.2.14-.38.25-.53.11-.15.24-.27.39-.36.15-.09.32-.13.5-.13.3,0,.55.14.75.41v-2.27ZM85.96,92.95c0,.1.01.2.04.29.03.09.07.17.12.23.05.07.11.12.18.15.07.04.14.06.22.06.07,0,.15-.02.22-.06.07-.04.13-.09.18-.15.05-.07.09-.14.12-.23.03-.08.04-.18.04-.28s-.02-.19-.04-.28c-.03-.09-.07-.16-.12-.23-.05-.07-.11-.12-.18-.15-.07-.04-.14-.06-.22-.06s-.15.02-.22.06c-.07.04-.13.09-.18.15-.05.07-.09.14-.12.22-.03.09-.04.18-.04.28Z"/>
    <path class="cls-2" d="M89.34,91.38v1.78c0,.39.14.58.44.58s.44-.19.44-.58v-1.78h.86v2c0,.43-.11.75-.32.96-.22.21-.54.32-.97.32s-.75-.11-.97-.32c-.22-.21-.33-.53-.33-.96v-2h.86Z"/>
    <path class="cls-2" d="M93.27,92.19c-.16-.11-.31-.16-.46-.16-.08,0-.14.02-.19.06-.05.04-.07.1-.07.16,0,.04,0,.07.01.09,0,.02.02.04.05.07.03.02.07.04.12.06.05.02.12.04.21.06.24.06.41.17.53.33.12.16.18.36.18.61,0,.19-.03.35-.09.5s-.14.27-.24.37c-.1.1-.22.18-.36.24-.14.06-.3.08-.47.08-.33,0-.65-.12-.97-.37l.31-.79c.24.21.47.32.68.32.08,0,.14-.02.19-.07.05-.04.08-.1.08-.17,0-.04,0-.07-.01-.1s-.02-.05-.05-.07-.06-.04-.11-.06c-.05-.02-.11-.04-.19-.06-.26-.07-.45-.17-.56-.31-.11-.14-.16-.33-.16-.57,0-.18.02-.33.08-.48.05-.14.12-.26.22-.36.1-.1.21-.18.34-.23s.28-.08.45-.08c.27,0,.53.07.78.2l-.29.73Z"/>
    <path class="cls-2" d="M95.09,92.31v2.23h-.86v-2.23h-.29v-.93h.29v-.95h.86v.95h.49v.93h-.49Z"/>
    <path class="cls-2" d="M95.9,91.38h.86v.52c.09-.19.2-.33.34-.43.13-.1.29-.15.46-.15h.07s.06,0,.09.01v1.07c-.11-.07-.24-.11-.37-.11-.2,0-.35.08-.45.23-.1.15-.15.38-.15.68v1.35h-.86v-3.16Z"/>
    <path class="cls-2" d="M98.05,90.16c0-.09.01-.17.04-.24.03-.08.06-.14.11-.2.04-.06.09-.1.15-.14.06-.03.12-.05.19-.05s.13.02.19.05c.06.03.11.08.15.14.04.06.08.12.1.2.02.07.04.15.04.24s-.01.17-.04.24c-.02.07-.06.14-.1.2-.04.06-.1.1-.15.14-.06.03-.12.05-.19.05s-.13-.02-.19-.05-.11-.08-.15-.14c-.04-.06-.08-.12-.11-.2-.02-.08-.04-.16-.04-.24ZM98.96,91.38v3.16h-.86v-3.16h.86Z"/>
    <path class="cls-2" d="M99.55,91.38h.86v.4c.12-.19.23-.31.35-.37.12-.07.26-.1.42-.1.17,0,.32.04.44.11.12.07.22.17.31.3.07.11.12.23.14.36.03.13.04.28.04.45v2.01h-.86v-1.6c0-.15,0-.28-.03-.38s-.05-.17-.09-.23c-.04-.05-.08-.08-.13-.11-.05-.02-.1-.03-.15-.03-.15,0-.26.06-.33.17-.08.11-.12.28-.12.48v1.69h-.86v-3.16Z"/>
  </g>
</svg>